<svg width="370" height="69" viewBox="0 0 370 69" fill="none" xmlns="http://www.w3.org/2000/svg">
<path d="M122.4 62.9976C121.973 62.9976 121.573 62.8376 121.2 62.5176C120.88 62.1442 120.72 61.7442 120.72 61.3176C120.72 61.0509 120.747 60.8109 120.8 60.5976L139.6 9.23755C139.76 8.65089 140.08 8.14422 140.56 7.71756C141.093 7.23755 141.813 6.99755 142.72 6.99755H154.56C155.467 6.99755 156.16 7.23755 156.64 7.71756C157.173 8.14422 157.52 8.65089 157.68 9.23755L176.4 60.5976C176.507 60.8109 176.56 61.0509 176.56 61.3176C176.56 61.7442 176.373 62.1442 176 62.5176C175.68 62.8376 175.28 62.9976 174.8 62.9976H164.96C164.16 62.9976 163.547 62.8109 163.12 62.4376C162.747 62.0109 162.507 61.6376 162.4 61.3176L159.28 53.1576H137.92L134.88 61.3176C134.773 61.6376 134.533 62.0109 134.16 62.4376C133.787 62.8109 133.147 62.9976 132.24 62.9976H122.4ZM141.2 41.6376H156.08L148.56 20.5176L141.2 41.6376ZM209.444 63.7976C206.404 63.7976 203.498 63.4242 200.724 62.6776C198.004 61.8776 195.578 60.7042 193.444 59.1576C191.311 57.6109 189.604 55.6909 188.324 53.3976C187.098 51.1042 186.431 48.4376 186.324 45.3976C186.324 44.9176 186.484 44.5176 186.804 44.1976C187.124 43.8242 187.551 43.6376 188.084 43.6376H198.884C199.631 43.6376 200.191 43.8242 200.564 44.1976C200.991 44.5709 201.338 45.1309 201.604 45.8776C201.871 47.3709 202.378 48.5976 203.124 49.5576C203.871 50.4642 204.804 51.1576 205.924 51.6376C207.098 52.0642 208.404 52.2776 209.844 52.2776C212.511 52.2776 214.564 51.4242 216.004 49.7176C217.444 47.9576 218.164 45.3976 218.164 42.0376V18.9176H192.244C191.711 18.9176 191.231 18.7309 190.804 18.3576C190.431 17.9842 190.244 17.5042 190.244 16.9176V8.99756C190.244 8.41089 190.431 7.93089 190.804 7.55756C191.231 7.18422 191.711 6.99755 192.244 6.99755H230.964C231.551 6.99755 232.031 7.18422 232.404 7.55756C232.831 7.93089 233.044 8.41089 233.044 8.99756V42.4376C233.044 47.0776 232.031 50.9976 230.004 54.1976C227.978 57.3442 225.204 59.7442 221.684 61.3976C218.164 62.9976 214.084 63.7976 209.444 63.7976ZM253.678 62.9976C253.091 62.9976 252.611 62.8109 252.238 62.4376C251.865 62.0642 251.678 61.5842 251.678 60.9976V8.99756C251.678 8.41089 251.865 7.93089 252.238 7.55756C252.611 7.18422 253.091 6.99755 253.678 6.99755H262.158C263.065 6.99755 263.705 7.21089 264.078 7.63756C264.505 8.01089 264.771 8.30422 264.878 8.51755L284.398 39.3176V8.99756C284.398 8.41089 284.585 7.93089 284.958 7.55756C285.331 7.18422 285.811 6.99755 286.398 6.99755H295.998C296.585 6.99755 297.065 7.18422 297.438 7.55756C297.811 7.93089 297.998 8.41089 297.998 8.99756V60.9976C297.998 61.5309 297.811 62.0109 297.438 62.4376C297.065 62.8109 296.585 62.9976 295.998 62.9976H287.438C286.585 62.9976 285.945 62.7842 285.518 62.3576C285.145 61.9309 284.905 61.6376 284.798 61.4776L265.278 31.8776V60.9976C265.278 61.5842 265.091 62.0642 264.718 62.4376C264.345 62.8109 263.865 62.9976 263.278 62.9976H253.678ZM313.978 62.9976C313.551 62.9976 313.151 62.8376 312.778 62.5176C312.458 62.1442 312.298 61.7442 312.298 61.3176C312.298 61.0509 312.325 60.8109 312.378 60.5976L331.178 9.23755C331.338 8.65089 331.658 8.14422 332.138 7.71756C332.671 7.23755 333.391 6.99755 334.298 6.99755H346.138C347.045 6.99755 347.738 7.23755 348.218 7.71756C348.751 8.14422 349.098 8.65089 349.258 9.23755L367.978 60.5976C368.085 60.8109 368.138 61.0509 368.138 61.3176C368.138 61.7442 367.951 62.1442 367.578 62.5176C367.258 62.8376 366.858 62.9976 366.378 62.9976H356.538C355.738 62.9976 355.125 62.8109 354.698 62.4376C354.325 62.0109 354.085 61.6376 353.978 61.3176L350.858 53.1576H329.498L326.458 61.3176C326.351 61.6376 326.111 62.0109 325.738 62.4376C325.365 62.8109 324.725 62.9976 323.818 62.9976H313.978ZM332.778 41.6376H347.658L340.138 20.5176L332.778 41.6376Z" fill="#09090C"/>
<g style="mix-blend-mode:overlay">
<path fill-rule="evenodd" clip-rule="evenodd" d="M48.0968 0.997559C63.5827 0.997559 78.7352 8.35448 93.4741 22.3685C93.493 22.3864 93.5116 22.4046 93.5301 22.423C95.021 23.9127 95.9991 26.0931 95.9991 28.3569C95.9991 28.7772 95.9167 29.1783 95.7672 29.5449C95.5436 31.2436 94.8133 33.0354 93.2709 34.3918C92.3799 35.2412 91.4875 36.0661 90.5938 36.8665C90.5405 36.9387 90.4837 37.0092 90.4233 37.0778C90.1818 37.3525 89.903 37.5751 89.6011 37.7448C76.6024 49.1064 63.3115 55.2604 49.7334 55.7334C35.5662 56.227 21.6448 50.5172 8.0092 39.1639C7.65834 39.4854 7.31248 39.8138 6.96768 40.1583C6.93798 40.188 6.90768 40.2171 6.87681 40.2456C6.19016 40.8789 6.03527 42.1176 6.88916 43.0418L6.91175 43.063C20.9242 56.3863 34.6002 62.698 47.943 62.698C61.2857 62.698 74.9618 56.3863 88.9742 43.063C90.2354 41.8639 92.2307 41.9133 93.4308 43.1734C94.631 44.4336 94.5815 46.4272 93.3203 47.6263C78.5814 61.6404 63.4288 68.9973 47.943 68.9973C32.5687 68.9973 17.5231 61.7461 2.88454 47.9285C2.57952 47.7234 2.25626 47.4326 1.98545 47.0267C1.96586 46.9974 1.94686 46.9679 1.92843 46.9382C-0.854329 43.5563 -0.60668 38.6249 2.54995 35.6639C3.70417 34.5144 4.84917 33.5338 5.8993 32.6344L5.93333 32.6053C5.9473 32.5933 5.96134 32.5815 5.97546 32.5698C19.7025 20.5401 33.7205 14.2422 48.0198 14.2422C61.5824 14.2422 74.892 19.9079 87.9402 30.7562C88.283 30.437 88.626 30.1136 88.9693 29.786C89.0103 29.7469 89.0523 29.7089 89.0953 29.672C89.2946 29.5014 89.5403 29.1008 89.5403 28.3567C89.5403 28.1544 89.5593 27.9565 89.5958 27.7648C89.4917 27.4386 89.3122 27.1254 89.0924 26.8979C75.0924 13.5979 61.4282 7.29685 48.0968 7.29685C34.7541 7.29685 21.078 13.6086 7.06559 26.9318C5.80441 28.1309 3.80911 28.0815 2.60896 26.8214C1.40881 25.5613 1.45828 23.5676 2.71945 22.3685C17.4584 8.35448 32.6109 0.997559 48.0968 0.997559ZM83.1375 34.9646C71.1427 25.1981 59.46 20.5415 48.0198 20.5415C36.5668 20.5415 24.8707 25.2085 12.8618 34.9973C25.3938 45.2044 37.5883 49.8534 49.5137 49.4379C60.4882 49.0556 71.6867 44.369 83.1375 34.9646ZM41.8983 34.9956C41.8983 31.6172 44.6394 28.8784 48.0207 28.8784C51.4019 28.8784 54.143 31.6172 54.143 34.9956C54.143 38.3741 51.4019 41.1128 48.0207 41.1128C44.6394 41.1128 41.8983 38.3741 41.8983 34.9956ZM48.0207 22.5791C41.1575 22.5791 35.5938 28.1382 35.5938 34.9956C35.5938 41.8531 41.1575 47.4121 48.0207 47.4121C54.8838 47.4121 60.4476 41.8531 60.4476 34.9956C60.4476 28.1382 54.8838 22.5791 48.0207 22.5791Z" fill="#09090C"/>
</g>
</svg>
