<svg xmlns="http://www.w3.org/2000/svg" viewBox="0 0 128 128" width="32" height="32"><g clip-path="url(#clip0_4715_20331)"><path d="M64 128C99.3462 128 128 99.3462 128 64C128 28.6538 99.3462 0 64 0C28.6538 0 0 28.6538 0 64C0 99.3462 28.6538 128 64 128Z" fill="white"></path><path fill-rule="evenodd" clip-rule="evenodd" d="M109.2 51.494C94.5511 37.5658 79.4913 30.2539 64.1002 30.2539C48.7091 30.2539 33.6493 37.5658 19.0006 51.494C17.7471 52.6859 17.698 54.6673 18.8908 55.9197C20.0836 57.1721 22.0667 57.2212 23.3201 56.0294C37.2468 42.7877 50.8392 36.5146 64.1002 36.5146C77.35 36.5146 90.9306 42.7771 104.845 55.9958C105.063 56.2213 105.241 56.5318 105.345 56.8553C105.308 57.0465 105.289 57.2439 105.289 57.4458C105.289 58.1854 105.045 58.5835 104.847 58.7531C104.804 58.7898 104.762 58.8275 104.721 58.8664C104.381 59.1918 104.04 59.513 103.699 59.83C90.7308 49.0475 77.5024 43.4163 64.0226 43.4163C49.8204 43.4163 35.8974 49.6672 22.2633 61.6075C22.238 61.6279 22.2129 61.6487 22.188 61.67L22.1542 61.699C21.1105 62.5928 19.9725 63.5674 18.8254 64.7099C15.688 67.6527 15.4419 72.554 18.2076 75.9152C18.226 75.9447 18.2448 75.974 18.2643 76.0032C18.5335 76.4065 18.8548 76.6956 19.1579 76.8994C33.7069 90.6324 48.6604 97.8392 63.9405 97.8392C79.3317 97.8392 94.3914 90.5274 109.04 76.5991C110.294 75.4073 110.343 73.4259 109.15 72.1735C107.957 70.9211 105.974 70.8719 104.721 72.0637C90.794 85.3054 77.2016 91.5785 63.9405 91.5785C50.6795 91.5785 37.0871 85.3054 23.1605 72.0637L23.138 72.0426C22.2893 71.1241 22.4433 69.8929 23.1257 69.2635C23.1564 69.2352 23.1865 69.2063 23.2161 69.1768C23.5599 68.8332 23.9048 68.5058 24.2548 68.1852C37.8076 79.4702 51.6445 85.1456 65.7257 84.655C79.2223 84.1848 92.4334 78.0672 105.354 66.7725C105.652 66.6042 105.928 66.3838 106.167 66.1121C106.225 66.0453 106.281 65.9766 106.333 65.9063C107.222 65.11 108.11 64.2892 108.997 63.444C110.529 62.0969 111.254 60.3177 111.477 58.6304C111.627 58.265 111.709 57.865 111.709 57.4458C111.709 55.1959 110.737 53.0288 109.255 51.5482L109.236 51.5289C109.232 51.5248 109.228 51.5208 109.224 51.5168C109.216 51.5092 109.208 51.5016 109.2 51.494ZM64.0226 49.677C75.393 49.677 87.0046 54.3054 98.9262 64.0126C87.5452 73.3599 76.415 78.0181 65.5073 78.3981C53.6547 78.811 41.5346 74.1903 29.0789 64.0452C41.0146 54.3157 52.6394 49.677 64.0226 49.677Z" fill="#B5179E"></path><path fill-rule="evenodd" clip-rule="evenodd" d="M63.9996 52.3633C57.5731 52.3633 52.3633 57.5731 52.3633 63.9996C52.3633 70.4262 57.5731 75.636 63.9996 75.636C70.4262 75.636 75.636 70.4262 75.636 63.9996C75.636 57.5731 70.4262 52.3633 63.9996 52.3633ZM63.9996 69.8178C67.2129 69.8178 69.8178 67.2129 69.8178 63.9996C69.8178 60.7864 67.2129 58.1815 63.9996 58.1815C60.7864 58.1815 58.1815 60.7864 58.1815 63.9996C58.1815 67.2129 60.7864 69.8178 63.9996 69.8178Z" fill="#B5179E"></path></g><defs><clipPath id="clip0_4715_20331"><rect width="128" height="128" fill="white"></rect></clipPath></defs></svg>