<svg xmlns="http://www.w3.org/2000/svg" version="1.1" xmlns:xlink="http://www.w3.org/1999/xlink" xmlns:svgjs="http://svgjs.com/svgjs" width="19" height="14"><svg width="19" height="14" viewBox="0 0 19 14" fill="none" xmlns="http://www.w3.org/2000/svg">
<path fill-rule="evenodd" clip-rule="evenodd" d="M17.9751 4.65526C15.2285 2.04371 12.4047 0.672729 9.51891 0.672729C6.63308 0.672729 3.80937 2.04371 1.06274 4.65526C0.827712 4.87872 0.818493 5.25024 1.04214 5.48506C1.2658 5.71989 1.63762 5.7291 1.87265 5.50564C4.48389 3.02282 7.03246 1.84662 9.51891 1.84662C12.0033 1.84662 14.5496 3.02083 17.1585 5.49933C17.1994 5.54162 17.2328 5.59983 17.2522 5.66049C17.2454 5.69634 17.2418 5.73336 17.2418 5.77122C17.2418 5.90988 17.196 5.98453 17.1589 6.01634C17.1509 6.0232 17.143 6.03028 17.1354 6.03757C17.0715 6.09858 17.0076 6.1588 16.9438 6.21824C14.5122 4.19654 12.0318 3.14068 9.50436 3.14068C6.84146 3.14068 4.2309 4.31272 1.6745 6.55153C1.66975 6.55535 1.66504 6.55925 1.66038 6.56325L1.65404 6.56868C1.45834 6.73627 1.24497 6.91901 1.02988 7.13322C0.441631 7.68501 0.395481 8.604 0.914055 9.23423C0.917489 9.23975 0.921031 9.24524 0.924681 9.25072C0.975148 9.32635 1.03539 9.38054 1.09223 9.41876C3.82016 11.9937 6.62395 13.345 9.48897 13.345C12.3748 13.345 15.1985 11.974 17.9452 9.36245C18.1802 9.13899 18.1894 8.76747 17.9657 8.53265C17.7421 8.29782 17.3703 8.28861 17.1352 8.51207C14.524 10.9949 11.9754 12.1711 9.48897 12.1711C7.00253 12.1711 4.45396 10.9949 1.84271 8.51207L1.8385 8.50811C1.67937 8.33589 1.70824 8.10505 1.8362 7.98703C1.84195 7.98172 1.8476 7.9763 1.85313 7.97077C1.91761 7.90635 1.98228 7.84496 2.0479 7.78484C4.58905 9.90078 7.18346 10.9649 9.82369 10.8729C12.3543 10.7848 14.8314 9.63772 17.254 7.51997C17.3099 7.48841 17.3616 7.44708 17.4064 7.39615C17.4174 7.38361 17.4278 7.37073 17.4375 7.35756C17.6043 7.20825 17.7708 7.05434 17.937 6.89587C18.2242 6.64328 18.3603 6.30968 18.4021 5.99332C18.4302 5.92481 18.4456 5.84981 18.4456 5.77121C18.4456 5.34935 18.2633 4.94302 17.9855 4.66542L17.9751 4.65526ZM9.50436 4.31457C11.6363 4.31457 13.8135 5.18238 16.0488 7.00248C13.9148 8.75511 11.8279 9.62851 9.78275 9.69976C7.56037 9.77719 5.28785 8.9108 2.95242 7.00859C5.19036 5.18432 7.37001 4.31457 9.50436 4.31457Z" fill="#B5179E"></path>
<path fill-rule="evenodd" clip-rule="evenodd" d="M9.50018 4.81824C8.29519 4.81824 7.31836 5.79507 7.31836 7.00006C7.31836 8.20504 8.29519 9.18187 9.50018 9.18187C10.7052 9.18187 11.682 8.20504 11.682 7.00006C11.682 5.79507 10.7052 4.81824 9.50018 4.81824ZM9.50018 8.09097C10.1027 8.09097 10.5911 7.60255 10.5911 7.00006C10.5911 6.39757 10.1027 5.90915 9.50018 5.90915C8.89769 5.90915 8.40927 6.39757 8.40927 7.00006C8.40927 7.60255 8.89769 8.09097 9.50018 8.09097Z" fill="#B5179E"></path>
</svg><style>@media (prefers-color-scheme: light) { :root { filter: none; } }
</style></svg>