<svg width="414" height="132" viewBox="0 0 414 132" fill="none" xmlns="http://www.w3.org/2000/svg">
<path d="M167.4 94C166.973 94 166.573 93.84 166.2 93.52C165.88 93.1467 165.72 92.7467 165.72 92.32C165.72 92.0533 165.747 91.8133 165.8 91.6L184.6 40.24C184.76 39.6533 185.08 39.1467 185.56 38.72C186.093 38.24 186.813 38 187.72 38H199.56C200.467 38 201.16 38.24 201.64 38.72C202.173 39.1467 202.52 39.6533 202.68 40.24L221.4 91.6C221.507 91.8133 221.56 92.0533 221.56 92.32C221.56 92.7467 221.373 93.1467 221 93.52C220.68 93.84 220.28 94 219.8 94H209.96C209.16 94 208.547 93.8133 208.12 93.44C207.747 93.0133 207.507 92.64 207.4 92.32L204.28 84.16H182.92L179.88 92.32C179.773 92.64 179.533 93.0133 179.16 93.44C178.787 93.8133 178.147 94 177.24 94H167.4ZM186.2 72.64H201.08L193.56 51.52L186.2 72.64ZM254.444 94.8C251.404 94.8 248.498 94.4267 245.724 93.68C243.004 92.88 240.578 91.7067 238.444 90.16C236.311 88.6133 234.604 86.6933 233.324 84.4C232.098 82.1067 231.431 79.44 231.324 76.4C231.324 75.92 231.484 75.52 231.804 75.2C232.124 74.8267 232.551 74.64 233.084 74.64H243.884C244.631 74.64 245.191 74.8267 245.564 75.2C245.991 75.5733 246.338 76.1333 246.604 76.88C246.871 78.3733 247.378 79.6 248.124 80.56C248.871 81.4667 249.804 82.16 250.924 82.64C252.098 83.0667 253.404 83.28 254.844 83.28C257.511 83.28 259.564 82.4267 261.004 80.72C262.444 78.96 263.164 76.4 263.164 73.04V49.92H237.244C236.711 49.92 236.231 49.7333 235.804 49.36C235.431 48.9867 235.244 48.5067 235.244 47.92V40C235.244 39.4133 235.431 38.9333 235.804 38.56C236.231 38.1867 236.711 38 237.244 38H275.964C276.551 38 277.031 38.1867 277.404 38.56C277.831 38.9333 278.044 39.4133 278.044 40V73.44C278.044 78.08 277.031 82 275.004 85.2C272.978 88.3467 270.204 90.7467 266.684 92.4C263.164 94 259.084 94.8 254.444 94.8ZM298.678 94C298.091 94 297.611 93.8133 297.238 93.44C296.865 93.0667 296.678 92.5867 296.678 92V40C296.678 39.4133 296.865 38.9333 297.238 38.56C297.611 38.1867 298.091 38 298.678 38H307.158C308.065 38 308.705 38.2133 309.078 38.64C309.505 39.0133 309.771 39.3067 309.878 39.52L329.398 70.32V40C329.398 39.4133 329.585 38.9333 329.958 38.56C330.331 38.1867 330.811 38 331.398 38H340.998C341.585 38 342.065 38.1867 342.438 38.56C342.811 38.9333 342.998 39.4133 342.998 40V92C342.998 92.5333 342.811 93.0133 342.438 93.44C342.065 93.8133 341.585 94 340.998 94H332.438C331.585 94 330.945 93.7867 330.518 93.36C330.145 92.9333 329.905 92.64 329.798 92.48L310.278 62.88V92C310.278 92.5867 310.091 93.0667 309.718 93.44C309.345 93.8133 308.865 94 308.278 94H298.678ZM358.978 94C358.551 94 358.151 93.84 357.778 93.52C357.458 93.1467 357.298 92.7467 357.298 92.32C357.298 92.0533 357.325 91.8133 357.378 91.6L376.178 40.24C376.338 39.6533 376.658 39.1467 377.138 38.72C377.671 38.24 378.391 38 379.298 38H391.138C392.045 38 392.738 38.24 393.218 38.72C393.751 39.1467 394.098 39.6533 394.258 40.24L412.978 91.6C413.085 91.8133 413.138 92.0533 413.138 92.32C413.138 92.7467 412.951 93.1467 412.578 93.52C412.258 93.84 411.858 94 411.378 94H401.538C400.738 94 400.125 93.8133 399.698 93.44C399.325 93.0133 399.085 92.64 398.978 92.32L395.858 84.16H374.498L371.458 92.32C371.351 92.64 371.111 93.0133 370.738 93.44C370.365 93.8133 369.725 94 368.818 94H358.978ZM377.778 72.64H392.658L385.138 51.52L377.778 72.64Z" fill="white"/>
<g style="mix-blend-mode:overlay">
<g clip-path="url(#clip0_140_17)">
<path d="M66 132C102.451 132 132 102.451 132 66C132 29.5492 102.451 0 66 0C29.5492 0 0 29.5492 0 66C0 102.451 29.5492 132 66 132Z" fill="white"/>
<path fill-rule="evenodd" clip-rule="evenodd" d="M112.612 53.1039C97.5057 38.7404 81.9753 31.2 66.1032 31.2C50.2311 31.2 34.7007 38.7404 19.5943 53.1039C18.3016 54.333 18.2509 56.3763 19.481 57.6679C20.7111 58.9594 22.7561 59.0101 24.0488 57.781C38.4106 44.1255 52.4278 37.6564 66.1032 37.6564C79.7671 37.6564 93.7721 44.1146 108.121 57.7463C108.346 57.9789 108.53 58.2991 108.637 58.6327C108.599 58.8299 108.579 59.0335 108.579 59.2417C108.579 60.0043 108.327 60.4149 108.123 60.5898C108.079 60.6276 108.036 60.6665 107.994 60.7066C107.642 61.0422 107.291 61.3734 106.94 61.7003C93.566 50.5809 79.9243 44.7737 66.0232 44.7737C51.3772 44.7737 37.0191 51.22 22.9589 63.5334C22.9328 63.5544 22.9069 63.5759 22.8813 63.5979L22.8464 63.6277C21.7701 64.5495 20.5965 65.5546 19.4135 66.7327C16.1782 69.7675 15.9244 74.822 18.7765 78.2883C18.7954 78.3186 18.8149 78.3488 18.835 78.3789C19.1125 78.7949 19.4438 79.093 19.7565 79.3032C34.7601 93.4654 50.1809 100.897 65.9386 100.897C81.8107 100.897 97.3411 93.357 112.448 78.9935C113.74 77.7645 113.791 75.7211 112.561 74.4296C111.331 73.138 109.286 73.0873 107.993 74.3164C93.6312 87.9719 79.614 94.441 65.9386 94.441C52.2631 94.441 38.246 87.9719 23.8841 74.3164L23.861 74.2946C22.9858 73.3474 23.1445 72.0778 23.8483 71.4287C23.8799 71.3995 23.911 71.3697 23.9414 71.3393C24.296 70.9849 24.6518 70.6473 25.0126 70.3166C38.989 81.9543 53.2582 87.807 67.7795 87.3011C81.6978 86.8162 95.3218 80.5074 108.646 68.8598C108.954 68.6863 109.238 68.459 109.484 68.1788C109.545 68.1099 109.602 68.039 109.656 67.9666C110.573 67.1454 111.489 66.2989 112.403 65.4273C113.983 64.0381 114.731 62.2032 114.961 60.4632C115.115 60.0864 115.2 59.674 115.2 59.2416C115.2 56.9214 114.198 54.6866 112.67 53.1598C112.651 53.1409 112.632 53.1223 112.612 53.1039ZM66.0232 51.2301C77.749 51.2301 89.7234 56.0031 102.018 66.0136C90.2809 75.6531 78.8028 80.4568 67.5543 80.8487C55.3312 81.2745 42.8324 76.5094 29.9875 66.0472C42.2962 56.0138 54.2843 51.2301 66.0232 51.2301Z" fill="#B5179E"/>
<path fill-rule="evenodd" clip-rule="evenodd" d="M66 54C59.3726 54 54 59.3726 54 66C54 72.6274 59.3726 78 66 78C72.6274 78 78 72.6274 78 66C78 59.3726 72.6274 54 66 54ZM66 72C69.3137 72 72 69.3137 72 66C72 62.6863 69.3137 60 66 60C62.6863 60 60 62.6863 60 66C60 69.3137 62.6863 72 66 72Z" fill="#B5179E"/>
</g>
</g>
<defs>
<clipPath id="clip0_140_17">
<rect width="132" height="132" fill="white"/>
</clipPath>
</defs>
</svg>
