<svg width="166" height="32" viewBox="0 0 166 32" fill="none" xmlns="http://www.w3.org/2000/svg">
<path d="M58.96 27C58.7893 27 58.6293 26.936 58.48 26.808C58.352 26.6587 58.288 26.4987 58.288 26.328C58.288 26.2213 58.2987 26.1253 58.32 26.04L65.84 5.496C65.904 5.26133 66.032 5.05867 66.224 4.888C66.4373 4.696 66.7253 4.6 67.088 4.6H71.824C72.1867 4.6 72.464 4.696 72.656 4.888C72.8693 5.05867 73.008 5.26133 73.072 5.496L80.56 26.04C80.6027 26.1253 80.624 26.2213 80.624 26.328C80.624 26.4987 80.5493 26.6587 80.4 26.808C80.272 26.936 80.112 27 79.92 27H75.984C75.664 27 75.4187 26.9253 75.248 26.776C75.0987 26.6053 75.0027 26.456 74.96 26.328L73.712 23.064H65.168L63.952 26.328C63.9093 26.456 63.8133 26.6053 63.664 26.776C63.5147 26.9253 63.2587 27 62.896 27H58.96ZM66.48 18.456H72.432L69.424 10.008L66.48 18.456ZM96.5778 27.32C95.3618 27.32 94.1991 27.1707 93.0898 26.872C92.0018 26.552 91.0311 26.0827 90.1778 25.464C89.3244 24.8453 88.6418 24.0773 88.1298 23.16C87.6391 22.2427 87.3724 21.176 87.3298 19.96C87.3298 19.768 87.3938 19.608 87.5218 19.48C87.6498 19.3307 87.8204 19.256 88.0338 19.256H92.3538C92.6524 19.256 92.8764 19.3307 93.0258 19.48C93.1964 19.6293 93.3351 19.8533 93.4418 20.152C93.5484 20.7493 93.7511 21.24 94.0498 21.624C94.3484 21.9867 94.7218 22.264 95.1698 22.456C95.6391 22.6267 96.1618 22.712 96.7378 22.712C97.8044 22.712 98.6258 22.3707 99.2018 21.688C99.7778 20.984 100.066 19.96 100.066 18.616V9.368H89.6978C89.4844 9.368 89.2924 9.29333 89.1218 9.144C88.9724 8.99467 88.8978 8.80267 88.8978 8.568V5.4C88.8978 5.16533 88.9724 4.97333 89.1218 4.824C89.2924 4.67467 89.4844 4.6 89.6978 4.6H105.186C105.42 4.6 105.612 4.67467 105.762 4.824C105.932 4.97333 106.018 5.16533 106.018 5.4V18.776C106.018 20.632 105.612 22.2 104.802 23.48C103.991 24.7387 102.882 25.6987 101.474 26.36C100.066 27 98.4338 27.32 96.5778 27.32ZM117.071 27C116.837 27 116.645 26.9253 116.495 26.776C116.346 26.6267 116.271 26.4347 116.271 26.2V5.4C116.271 5.16533 116.346 4.97333 116.495 4.824C116.645 4.67467 116.837 4.6 117.071 4.6H120.463C120.826 4.6 121.082 4.68533 121.231 4.856C121.402 5.00533 121.509 5.12266 121.551 5.208L129.359 17.528V5.4C129.359 5.16533 129.434 4.97333 129.583 4.824C129.733 4.67467 129.925 4.6 130.159 4.6H133.999C134.234 4.6 134.426 4.67467 134.575 4.824C134.725 4.97333 134.799 5.16533 134.799 5.4V26.2C134.799 26.4133 134.725 26.6053 134.575 26.776C134.426 26.9253 134.234 27 133.999 27H130.575C130.234 27 129.978 26.9147 129.807 26.744C129.658 26.5733 129.562 26.456 129.519 26.392L121.711 14.552V26.2C121.711 26.4347 121.637 26.6267 121.487 26.776C121.338 26.9253 121.146 27 120.911 27H117.071ZM143.991 27C143.821 27 143.661 26.936 143.511 26.808C143.383 26.6587 143.319 26.4987 143.319 26.328C143.319 26.2213 143.33 26.1253 143.351 26.04L150.871 5.496C150.935 5.26133 151.063 5.05867 151.255 4.888C151.469 4.696 151.757 4.6 152.119 4.6H156.855C157.218 4.6 157.495 4.696 157.687 4.888C157.901 5.05867 158.039 5.26133 158.103 5.496L165.591 26.04C165.634 26.1253 165.655 26.2213 165.655 26.328C165.655 26.4987 165.581 26.6587 165.431 26.808C165.303 26.936 165.143 27 164.951 27H161.015C160.695 27 160.45 26.9253 160.279 26.776C160.13 26.6053 160.034 26.456 159.991 26.328L158.743 23.064H150.199L148.983 26.328C148.941 26.456 148.845 26.6053 148.695 26.776C148.546 26.9253 148.29 27 147.927 27H143.991ZM151.511 18.456H157.463L154.455 10.008L151.511 18.456Z" fill="white"/>
<path fill-rule="evenodd" clip-rule="evenodd" d="M21.3712 1C28.2521 1 34.9848 4.2689 41.5337 10.4957C41.5421 10.5037 41.5504 10.5118 41.5586 10.52C42.221 11.1819 42.6556 12.1507 42.6556 13.1566C42.6556 13.3419 42.6196 13.5188 42.5541 13.6807C42.4553 14.4366 42.1309 15.2343 41.4444 15.8379C41.0485 16.2154 40.6519 16.5819 40.2548 16.9376C40.2311 16.9696 40.2059 17.0009 40.1792 17.0313C40.0719 17.1533 39.9481 17.2522 39.8141 17.3275C34.0383 22.376 28.1327 25.1104 22.0994 25.3206C15.8043 25.5399 9.61843 23.0027 3.55952 17.9578C3.40335 18.1009 3.24941 18.247 3.09595 18.4003C3.08275 18.4135 3.06929 18.4265 3.05557 18.4391C2.75047 18.7205 2.68165 19.2709 3.06106 19.6815L3.07109 19.691C9.29722 25.6109 15.3739 28.4154 21.3025 28.4154C27.231 28.4154 33.3077 25.6109 39.5339 19.691C40.0942 19.1582 40.9808 19.1801 41.5141 19.74C42.0473 20.3 42.0253 21.1858 41.465 21.7186C34.916 27.9454 28.1833 31.2143 21.3025 31.2143C14.4713 31.2143 7.78603 27.9924 1.28169 21.8528C1.14616 21.7617 1.00253 21.6325 0.882196 21.4522C0.873491 21.4391 0.865047 21.426 0.856858 21.4129C-0.379604 19.9102 -0.269566 17.719 1.13302 16.4033C1.64585 15.8926 2.1546 15.4569 2.62119 15.0573L2.62122 15.0573L2.62123 15.0573L2.63636 15.0443C2.64783 15.0345 2.65942 15.0249 2.67111 15.0155C8.76576 9.67863 14.9895 6.88477 21.338 6.88477C27.3643 6.88477 33.2782 9.4022 39.0759 14.2225C39.2282 14.0807 39.3806 13.937 39.5331 13.7914C39.5513 13.774 39.57 13.7571 39.5891 13.7408C39.6776 13.6649 39.7868 13.4869 39.7868 13.1563C39.7868 13.0672 39.7952 12.98 39.8111 12.8955C39.7649 12.7498 39.6849 12.6098 39.5868 12.5083C33.3662 6.59869 27.2948 3.79896 21.3712 3.79896C15.4426 3.79896 9.36596 6.60344 3.13983 12.5233C2.57945 13.0562 1.69288 13.0342 1.15962 12.4743C0.626358 11.9144 0.648339 11.0286 1.20872 10.4957C7.75765 4.2689 14.4904 1 21.3712 1ZM36.9419 16.0924C31.6123 11.7528 26.4213 9.68373 21.338 9.68373C16.2491 9.68373 11.0522 11.7574 5.71628 16.1069C11.2846 20.6423 16.703 22.708 22.0018 22.5233C26.8781 22.3535 31.854 20.2711 36.9419 16.0924ZM18.6177 16.1064C18.6177 14.6052 19.8356 13.3883 21.338 13.3883C22.8404 13.3883 24.0584 14.6052 24.0584 16.1064C24.0584 17.6075 22.8404 18.8244 21.338 18.8244C19.8356 18.8244 18.6177 17.6075 18.6177 16.1064ZM21.338 10.5894C18.2885 10.5894 15.8164 13.0594 15.8164 16.1064C15.8164 19.1533 18.2885 21.6234 21.338 21.6234C24.3876 21.6234 26.8597 19.1533 26.8597 16.1064C26.8597 13.0594 24.3876 10.5894 21.338 10.5894Z" fill="#B5179E"/>
</svg>
