<svg id="Layer_1" data-name="Layer 1" xmlns="http://www.w3.org/2000/svg" viewBox="0 0 459.72 405.48"><defs><style>.cls-1{fill:#fff;}</style></defs><polygon class="cls-1" points="1.87 403.04 1.87 2.44 402.26 2.44 402.26 122.08 381.3 122.08 381.24 22.51 21.95 22.51 21.95 382.97 381.24 382.97 381.24 278.08 402.26 278.08 402.26 403.04 1.87 403.04"/><path class="cls-1" d="M144,214.48A25.87,25.87,0,0,1,149.69,231a26.62,26.62,0,0,1-4.13,14.79,27.53,27.53,0,0,1-11.94,10,43.78,43.78,0,0,1-18.47,3.61H69.94V154.56H113.2A44.74,44.74,0,0,1,131.59,158a26.18,26.18,0,0,1,11.72,9.61,25.17,25.17,0,0,1,4,14q0,9.16-4.89,15.32a26,26,0,0,1-13,8.71A23.61,23.61,0,0,1,144,214.48ZM91,197.81h19.22q7.52,0,11.56-3.38t4.06-9.68q0-6.31-4.06-9.76t-11.56-3.46H91Zm33.11,40.85q4.29-3.6,4.28-10.21,0-6.76-4.5-10.59T111.69,214H91v28.24h21.17Q119.81,242.27,124.08,238.66Z"/><path class="cls-1" d="M184.23,148.25V259.39h-21V148.25Z"/><path class="cls-1" d="M217,255.41a38.47,38.47,0,0,1-15.1-15.1,45.22,45.22,0,0,1-5.48-22.52A44.33,44.33,0,0,1,202,195.26a39.12,39.12,0,0,1,15.4-15.09,47.14,47.14,0,0,1,43.55,0,39,39,0,0,1,15.39,15.09A44.23,44.23,0,0,1,282,217.79a43.36,43.36,0,0,1-5.78,22.52,40,40,0,0,1-15.62,15.1,45.46,45.46,0,0,1-22,5.33A43.82,43.82,0,0,1,217,255.41Zm32.36-15.77a20.16,20.16,0,0,0,8-8.34,28,28,0,0,0,3-13.51q0-11.86-6.23-18.25a20.52,20.52,0,0,0-15.25-6.38,20,20,0,0,0-15.09,6.38q-6.09,6.39-6.08,18.25T223.65,236a19.5,19.5,0,0,0,14.94,6.39A21.88,21.88,0,0,0,249.33,239.64Z"/><path class="cls-1" d="M294,195.18a37.51,37.51,0,0,1,14.56-15,42.11,42.11,0,0,1,21.33-5.33q15.47,0,25.6,7.73t13.6,21.7H346.42a16.59,16.59,0,0,0-6.08-8.48,17.64,17.64,0,0,0-10.59-3.08q-9,0-14.27,6.53t-5.25,18.55q0,11.86,5.25,18.39t14.27,6.54q12.76,0,16.67-11.42H369.1a38.44,38.44,0,0,1-13.67,21.48q-10.21,8-25.53,8a42.21,42.21,0,0,1-21.33-5.33,37.54,37.54,0,0,1-14.56-15q-5.26-9.69-5.26-22.6T294,195.18Z"/><path class="cls-1" d="M430.52,259.39l-28.24-35.45v35.45h-21V148.25h21v63.23l27.94-35.29h27.33l-36.64,41.75,36.94,41.45Z"/><path class="cls-1" d="M93.28,313.32h-23l-4.41,12H60.58L79,275.5h5.7L103,325.3H97.68Zm-1.52-4.19-10-27.28-10,27.28Z"/><path class="cls-1" d="M140.59,289.54q4.47,4.36,4.47,12.66v23.1h-5V302.78q0-6.42-3.21-9.82a11.49,11.49,0,0,0-8.77-3.39,11.9,11.9,0,0,0-9.09,3.61q-3.39,3.61-3.39,10.61V325.3h-5.05V285.89h5.05v6.71a12.93,12.93,0,0,1,5.41-5.52,16.63,16.63,0,0,1,8-1.91A15.84,15.84,0,0,1,140.59,289.54Z"/><path class="cls-1" d="M155,294.88a17.22,17.22,0,0,1,6.71-7.07,18.9,18.9,0,0,1,9.71-2.5,17.72,17.72,0,0,1,9.71,2.6,15.28,15.28,0,0,1,5.88,6.64v-8.66h5.05V325.3H187v-8.74a15.76,15.76,0,0,1-6,6.68,17.45,17.45,0,0,1-9.7,2.64,18.7,18.7,0,0,1-9.64-2.53A17.49,17.49,0,0,1,155,316.2a22.73,22.73,0,0,1-2.42-10.68A22.48,22.48,0,0,1,155,294.88Zm30.06,2.34a13.86,13.86,0,0,0-5.31-5.55,14.42,14.42,0,0,0-7.39-1.95,15,15,0,0,0-7.51,1.87,13.35,13.35,0,0,0-5.23,5.45,17.67,17.67,0,0,0-1.91,8.48,17.92,17.92,0,0,0,1.91,8.48,13.4,13.4,0,0,0,5.23,5.56,14.72,14.72,0,0,0,7.51,1.91,14.42,14.42,0,0,0,7.39-2,13.93,13.93,0,0,0,5.31-5.55,19,19,0,0,0,0-16.75Z"/><path class="cls-1" d="M204.56,271.89V325.3H199.5V271.89Z"/><path class="cls-1" d="M214.57,277.38a3.61,3.61,0,0,1-1.09-2.67,3.5,3.5,0,0,1,1.09-2.64,3.76,3.76,0,0,1,5.19,0,3.53,3.53,0,0,1,1.08,2.64,3.64,3.64,0,0,1-1.08,2.67,3.66,3.66,0,0,1-5.19,0Zm5.12,8.51V325.3h-5.05V285.89Z"/><path class="cls-1" d="M237.77,290.15v24.47c0,2.4.45,4.06,1.37,5S241.66,321,244,321h4.62v4.33h-5.41q-5.34,0-7.94-2.49t-2.6-8.19V290.15h-5.48v-4.26h5.48V276h5.13v9.88h10.82v4.26Z"/><path class="cls-1" d="M257.16,277.38a3.64,3.64,0,0,1-1.08-2.67,3.53,3.53,0,0,1,1.08-2.64,3.77,3.77,0,0,1,5.2,0,3.53,3.53,0,0,1,1.08,2.64,3.64,3.64,0,0,1-1.08,2.67,3.67,3.67,0,0,1-5.2,0Zm5.13,8.51V325.3h-5.06V285.89Z"/><path class="cls-1" d="M271.5,294.88a17.38,17.38,0,0,1,6.78-7.07,19.39,19.39,0,0,1,9.89-2.5q7.29,0,12,3.61a16.33,16.33,0,0,1,6.09,9.82h-5.41a11.12,11.12,0,0,0-4.36-6.68,13.92,13.92,0,0,0-8.34-2.41,14.25,14.25,0,0,0-7.15,1.8,12.65,12.65,0,0,0-5,5.38,18.92,18.92,0,0,0-1.84,8.76A19.19,19.19,0,0,0,276,314.4a12.61,12.61,0,0,0,5,5.41,14.15,14.15,0,0,0,7.15,1.81,13.92,13.92,0,0,0,8.34-2.42,11.11,11.11,0,0,0,4.36-6.75h5.41a16.47,16.47,0,0,1-6.13,9.74,19,19,0,0,1-12,3.69,19.49,19.49,0,0,1-9.89-2.5,17.38,17.38,0,0,1-6.78-7.07,24.57,24.57,0,0,1,0-21.43Z"/><path class="cls-1" d="M314.51,294.88a17.22,17.22,0,0,1,6.71-7.07,18.93,18.93,0,0,1,9.71-2.5,17.72,17.72,0,0,1,9.71,2.6,15.16,15.16,0,0,1,5.88,6.64v-8.66h5.05V325.3h-5.05v-8.74a15.81,15.81,0,0,1-5.95,6.68,17.49,17.49,0,0,1-9.71,2.64,18.72,18.72,0,0,1-9.64-2.53,17.49,17.49,0,0,1-6.71-7.15,22.73,22.73,0,0,1-2.42-10.68A22.48,22.48,0,0,1,314.51,294.88Zm30.06,2.34a13.91,13.91,0,0,0-5.3-5.55,14.49,14.49,0,0,0-7.4-1.95,15,15,0,0,0-7.51,1.87,13.42,13.42,0,0,0-5.23,5.45,17.78,17.78,0,0,0-1.91,8.48,18,18,0,0,0,1.91,8.48,13.46,13.46,0,0,0,5.23,5.56,14.75,14.75,0,0,0,7.51,1.91,14.49,14.49,0,0,0,7.4-2,14,14,0,0,0,5.3-5.55,19,19,0,0,0,0-16.75Z"/></svg>